<svg width="187" height="50" viewBox="0 0 187 70" fill="none" xmlns="http://www.w3.org/2000/svg">
<path d="M62.9876 32.3834C61.5217 32.3834 60.3343 32.1114 59.4254 31.5675C58.5166 31.0236 57.8569 30.2984 57.4464 29.3919C57.036 28.4552 56.8308 27.4278 56.8308 26.3097V12.8481H53.9722V7.99823H57.0506L58.1941 1.1994H62.9436V7.99823H67.1654V12.8481H62.9436V25.2673C62.9436 25.9925 63.1049 26.5515 63.4274 26.9443C63.7499 27.3069 64.2776 27.4882 65.0106 27.4882H67.1654V31.6582C66.8136 31.779 66.4032 31.8848 65.9341 31.9754C65.465 32.0963 64.9666 32.187 64.4388 32.2474C63.9111 32.338 63.4274 32.3834 62.9876 32.3834Z" fill="#FA6650"/>
<path d="M40.6728 32.3833C38.071 32.3833 35.8878 31.9407 34.1234 31.0553C32.3589 30.1394 31.0281 28.7503 30.131 26.888C29.2338 25.0257 28.7852 22.6596 28.7852 19.7898C28.7852 16.8895 29.2338 14.5234 30.131 12.6916C31.0281 10.8293 32.344 9.45549 34.0785 8.57013C35.843 7.65424 37.9962 7.19629 40.5382 7.19629C42.9307 7.19629 44.9493 7.63897 46.5941 8.52434C48.239 9.37917 49.4801 10.7225 50.3174 12.5543C51.1548 14.3555 51.5735 16.691 51.5735 19.5608V21.2094H35.1103C35.1701 22.6138 35.3794 23.8045 35.7383 24.7814C36.1271 25.7584 36.7102 26.4911 37.4878 26.9796C38.2953 27.4375 39.3569 27.6665 40.6728 27.6665C41.3905 27.6665 42.0335 27.5749 42.6017 27.3917C43.1998 27.2085 43.7082 26.9338 44.1269 26.5674C44.5456 26.2011 44.8745 25.7431 45.1138 25.1936C45.353 24.644 45.4727 24.0182 45.4727 23.316H51.5735C51.5735 24.8425 51.3043 26.1705 50.766 27.3001C50.2277 28.4297 49.4801 29.3762 48.5231 30.1394C47.5661 30.8721 46.4147 31.4369 45.0689 31.8338C43.7531 32.2002 42.2877 32.3833 40.6728 32.3833ZM35.2 17.1795H45.1587C45.1587 16.2636 45.039 15.4699 44.7998 14.7982C44.5904 14.1265 44.2914 13.577 43.9026 13.1496C43.5138 12.7222 43.0353 12.4169 42.4671 12.2337C41.9288 12.02 41.3158 11.9131 40.6279 11.9131C39.4915 11.9131 38.5345 12.1116 37.757 12.5085C37.0093 12.8748 36.4261 13.4549 36.0075 14.2487C35.6187 15.0119 35.3495 15.9889 35.2 17.1795Z" fill="#FA6650"/>
<path d="M0 31.184V0H16.2134C18.4538 0 20.3159 0.424271 21.7995 1.27281C23.3133 2.09105 24.4487 3.2578 25.2056 4.77306C25.9928 6.25801 26.3864 8.03086 26.3864 10.0916C26.3864 12.1524 25.9777 13.9555 25.1602 15.5011C24.373 17.0163 23.2073 18.1982 21.6632 19.0468C20.1191 19.8953 18.2268 20.3196 15.9863 20.3196H6.76692V31.184H0ZM6.76692 14.7737H15.078C16.501 14.7737 17.591 14.3646 18.3479 13.5464C19.1351 12.7281 19.5287 11.5917 19.5287 10.1371C19.5287 9.13699 19.3622 8.3036 19.0291 7.63689C18.6961 6.97018 18.1965 6.45499 17.5304 6.09133C16.8946 5.72767 16.0771 5.54584 15.078 5.54584H6.76692V14.7737Z" fill="#FA6650"/>
<path d="M171.172 60.5554V33.4362H177.101L177.668 37.6639H178.029C178.373 36.7703 178.82 35.9625 179.37 35.2407C179.919 34.4846 180.607 33.8831 181.432 33.4362C182.257 32.9894 183.219 32.766 184.319 32.766C184.903 32.766 185.436 32.8347 185.917 32.9722C186.399 33.0753 186.759 33.1785 187 33.2816V39.7778H184.783C183.718 39.7778 182.772 39.9325 181.947 40.2418C181.157 40.5168 180.487 40.9636 179.937 41.5823C179.387 42.201 178.974 42.9572 178.699 43.8508C178.459 44.7445 178.338 45.7928 178.338 46.9958V60.5554H171.172Z" fill="white"/>
<path d="M153.385 61.1741C150.395 61.1741 147.886 60.6757 145.858 59.6789C143.83 58.6478 142.301 57.0839 141.27 54.9872C140.238 52.8906 139.723 50.2268 139.723 46.9958C139.723 43.7305 140.238 41.0667 141.27 39.0044C142.301 36.9078 143.813 35.3611 145.807 34.3643C147.834 33.3331 150.309 32.8176 153.231 32.8176C155.981 32.8176 158.301 33.316 160.191 34.3127C162.082 35.2751 163.508 36.7875 164.47 38.8498C165.433 40.8777 165.914 43.5071 165.914 46.738V48.5941H146.992C147.061 50.1752 147.302 51.5157 147.714 52.6156C148.161 53.7155 148.831 54.5404 149.725 55.0903C150.653 55.6059 151.873 55.8637 153.385 55.8637C154.21 55.8637 154.949 55.7606 155.602 55.5544C156.29 55.3481 156.874 55.0388 157.355 54.6263C157.837 54.2139 158.215 53.6983 158.49 53.0796C158.765 52.4609 158.902 51.7563 158.902 50.9657H165.914C165.914 52.6843 165.605 54.1795 164.986 55.4512C164.367 56.723 163.508 57.7885 162.408 58.6478C161.308 59.4727 159.985 60.1086 158.438 60.5554C156.926 60.9679 155.242 61.1741 153.385 61.1741ZM147.096 44.0571H158.541C158.541 43.0259 158.404 42.1323 158.129 41.3761C157.888 40.6199 157.544 40.0012 157.098 39.52C156.651 39.0388 156.101 38.6951 155.448 38.4889C154.829 38.2483 154.124 38.128 153.334 38.128C152.028 38.128 150.928 38.3514 150.034 38.7982C149.175 39.2107 148.505 39.8637 148.024 40.7574C147.577 41.6167 147.267 42.7166 147.096 44.0571Z" fill="white"/>
<path d="M109.696 69.7326V33.4363H115.573L116.192 37.0968H116.553C117.447 35.6188 118.615 34.5361 120.059 33.8487C121.502 33.1613 123.101 32.8176 124.854 32.8176C127.122 32.8176 129.064 33.316 130.68 34.3127C132.33 35.3095 133.584 36.8562 134.443 38.9529C135.337 41.0496 135.784 43.7477 135.784 47.0474C135.784 50.2439 135.337 52.8906 134.443 54.9872C133.55 57.0839 132.295 58.6478 130.68 59.6789C129.099 60.6757 127.243 61.1741 125.111 61.1741C123.943 61.1741 122.86 61.0366 121.863 60.7616C120.867 60.521 119.973 60.1258 119.182 59.5758C118.392 59.0259 117.722 58.3556 117.172 57.5651H116.862V69.7326H109.696ZM122.637 55.2966C124.08 55.2966 125.215 55.0216 126.04 54.4716C126.899 53.8873 127.517 53.028 127.896 51.8938C128.274 50.7251 128.463 49.2987 128.463 47.6145V46.4287C128.463 44.7101 128.274 43.2837 127.896 42.1494C127.517 40.9808 126.899 40.1215 126.04 39.5716C125.215 38.9873 124.08 38.6951 122.637 38.6951C121.296 38.6951 120.196 39.0044 119.337 39.6231C118.478 40.2418 117.842 41.1355 117.429 42.3041C117.017 43.4727 116.811 44.882 116.811 46.5318V47.4083C116.811 48.6113 116.931 49.7112 117.172 50.708C117.412 51.6704 117.756 52.4953 118.203 53.1827C118.684 53.8701 119.285 54.4029 120.007 54.781C120.729 55.1247 121.606 55.2966 122.637 55.2966Z" fill="white"/>
<path d="M63.7776 60.5554V33.4363H69.7067L70.2738 37.1484H70.6347C71.2191 36.2547 71.9065 35.4814 72.697 34.8283C73.522 34.1752 74.4328 33.6769 75.4296 33.3331C76.4607 32.9894 77.5606 32.8176 78.7292 32.8176C80.4478 32.8176 81.9258 33.1613 83.1632 33.8487C84.4349 34.5361 85.4145 35.636 86.1019 37.1484H86.4628C87.0472 36.2547 87.7518 35.4814 88.5767 34.8283C89.4016 34.1752 90.3468 33.6769 91.4124 33.3331C92.4779 32.9894 93.6121 32.8176 94.8151 32.8176C96.5337 32.8176 98.0117 33.1269 99.2491 33.7456C100.521 34.3643 101.518 35.3782 102.239 36.7875C102.961 38.1623 103.322 39.9497 103.322 42.1494V60.5554H96.1556V43.4384C96.1556 42.5791 96.0525 41.8573 95.8463 41.273C95.6744 40.6543 95.4166 40.1731 95.0729 39.8294C94.7292 39.4513 94.2996 39.1763 93.784 39.0044C93.2684 38.8326 92.7185 38.7467 92.1342 38.7467C91.1717 38.7467 90.3125 39.0044 89.5563 39.52C88.8001 40.0356 88.1986 40.7402 87.7518 41.6339C87.3393 42.5275 87.1331 43.5587 87.1331 44.7273V60.5554H79.9666V43.4384C79.9666 42.5791 79.8635 41.8573 79.6573 41.273C79.4854 40.6543 79.2276 40.1731 78.8839 39.8294C78.5402 39.4513 78.1106 39.1763 77.595 39.0044C77.1138 38.8326 76.5638 38.7467 75.9452 38.7467C75.0171 38.7467 74.1578 39.0044 73.3673 39.52C72.6111 40.0356 72.0096 40.7402 71.5628 41.6339C71.1503 42.5275 70.9441 43.5587 70.9441 44.7273V60.5554H63.7776Z" fill="white"/>
<path d="M41.0368 61.1741C40.1431 61.1741 39.1807 61.071 38.1496 60.8648C37.1528 60.6585 36.2076 60.2976 35.3139 59.7821C34.4203 59.2321 33.6813 58.4587 33.097 57.462C32.547 56.4308 32.2721 55.1247 32.2721 53.5436C32.2721 51.6532 32.6845 50.0893 33.5094 48.8519C34.3344 47.6145 35.503 46.6521 37.0153 45.9647C38.5621 45.2429 40.4009 44.7445 42.532 44.4695C44.663 44.1946 47.0175 44.0571 49.5953 44.0571V42.0463C49.5953 41.2558 49.4578 40.5684 49.1829 39.984C48.9423 39.3997 48.4954 38.9357 47.8424 38.592C47.2237 38.2483 46.3472 38.0764 45.213 38.0764C44.0787 38.0764 43.1507 38.2139 42.4289 38.4889C41.7414 38.7638 41.243 39.1247 40.9337 39.5716C40.6587 39.984 40.5212 40.4481 40.5212 40.9636V41.5823H33.561C33.5266 41.4105 33.5094 41.2558 33.5094 41.1183C33.5094 40.9464 33.5094 40.7402 33.5094 40.4996C33.5094 38.9185 33.9906 37.5608 34.953 36.4266C35.9154 35.2579 37.2731 34.3643 39.0261 33.7456C40.779 33.1269 42.8241 32.8176 45.1614 32.8176C47.6705 32.8176 49.7672 33.1441 51.4514 33.7972C53.17 34.4502 54.4761 35.4126 55.3697 36.6844C56.2978 37.9561 56.7618 39.5544 56.7618 41.4792V53.8014C56.7618 54.4201 56.9336 54.8841 57.2774 55.1934C57.6554 55.4684 58.0679 55.6059 58.5147 55.6059H60.2161V60.2976C59.8724 60.4695 59.3397 60.6413 58.6179 60.8132C57.8961 61.0194 57.0196 61.1225 55.9884 61.1225C54.9917 61.1225 54.098 60.9679 53.3074 60.6585C52.5513 60.3836 51.9154 59.9883 51.3998 59.4727C50.8843 58.9228 50.5233 58.2697 50.3171 57.5135H49.9562C49.3719 58.2353 48.6501 58.8712 47.7908 59.4212C46.9659 59.9711 45.9863 60.4007 44.852 60.7101C43.7521 61.0194 42.4804 61.1741 41.0368 61.1741ZM43.46 55.7606C44.4224 55.7606 45.2817 55.6231 46.0379 55.3481C46.794 55.0388 47.4299 54.6435 47.9455 54.1623C48.4611 53.6467 48.8563 53.028 49.1313 52.3062C49.4407 51.5844 49.5953 50.8111 49.5953 49.9862V48.491C47.6705 48.491 45.9519 48.6285 44.4396 48.9035C42.9272 49.1441 41.7242 49.5737 40.8306 50.1924C39.9713 50.8111 39.5416 51.6704 39.5416 52.7703C39.5416 53.3889 39.6963 53.9217 40.0057 54.3685C40.315 54.8154 40.7618 55.1591 41.3461 55.3997C41.9305 55.6403 42.6351 55.7606 43.46 55.7606Z" fill="white"/>
<path d="M0 60.5554V25.1871H18.406C20.9495 25.1871 23.0633 25.6683 24.7475 26.6307C26.4661 27.5587 27.755 28.882 28.6143 30.6006C29.508 32.2848 29.9548 34.2955 29.9548 36.6328C29.9548 38.9701 29.4908 41.0152 28.5628 42.7681C27.6691 44.4867 26.3458 45.8272 24.5929 46.7896C22.8399 47.752 20.6917 48.2332 18.1482 48.2332H7.68204V60.5554H0ZM7.68204 41.9432H17.117C18.7325 41.9432 19.9699 41.4792 20.8292 40.5512C21.7228 39.6231 22.1697 38.3342 22.1697 36.6844C22.1697 35.5501 21.9806 34.6049 21.6025 33.8487C21.2244 33.0925 20.6573 32.5082 19.9011 32.0958C19.1793 31.6833 18.2513 31.4771 17.117 31.4771H7.68204V41.9432Z" fill="white"/>
</svg>
